<?xml version="1.0" encoding="UTF-8"?>
<svg id="_Шар_1" data-name="Шар 1" xmlns="http://www.w3.org/2000/svg" viewBox="0 0 154.28 213.96">
  <defs>
    <style>
      .cls-1 {
        fill: #fff;
        stroke-width: 0px;
      }
    </style>
  </defs>
  <path class="cls-1" d="M58.05,176.68c1.16-.95,3.99-3.24,7.42-5.84v-.14c-10.11-3.82-16.63-11.57-17.08-20.37-.57-11.41,5.89-17.14,8.02-19.02,1.18-1.05,4.59-3.78,7.89-6.37l-.06-2.44c-9.08-3.62-14.72-11.02-15.18-20.01-.43-8.49,2.92-15.96,9.69-21.62,1.24-1.04,2.65-2.08,4.35-3.23l-.07-2.64c-8.9-3.62-14.43-11.08-14.89-20.19-.45-8.72,4.02-14.51,7.03-17.54C25.09,46.63,3.25,74.68,3.25,107.84s22.2,61.66,52.66,70.78c.66-.67,1.37-1.31,2.14-1.94Z"/>
  <path class="cls-1" d="M109.94,41.62c-1.47,1.32-2.81,2.27-3.66,2.88-3.44,2.45-7.45,4.31-11.45,5.8,7.23,3.6,12.37,10.67,12.72,18.32v.2c.17,3.39.6,12.4-9.21,21.36-2.64,2.4-5.76,4.5-8.68,6.29v.34c9.45,3.64,15.51,11.33,15.92,20.38.19,4.11-.89,12.2-10.24,20.14-2.32,1.97-4.76,3.88-6.86,5.48l-.07,2.87c8.91,2.77,15.41,10.7,15.82,19.73.15,3.25-.19,7.66-3.56,12.48,29.27-9.82,50.36-37.47,50.36-70.05,0-29.03-16.74-54.14-41.09-66.22Z"/>
  <path class="cls-1" d="M85.06,148.96c-.12-.02-.24-.04-.36-.05-.12-.02-.25-.03-.37-.03l.2-8.09c2.03-1.54,4.15-3.17,6.23-4.86.67-.54,1.33-1.09,1.99-1.65,8.05-6.83,8.99-13.53,8.84-16.91-.36-7.81-5.98-14.43-14.67-17.29l-1.34-.44.14-5.46c.06-.03.12-.07.18-.11s.12-.08.18-.11c.75-.45,1.51-.91,2.26-1.38.44-.27.87-.55,1.3-.83,2.15-1.4,4.22-2.91,6-4.53,8.42-7.69,8.07-15.06,7.92-18.21v-.2c-.37-7.89-7.1-15.05-15.67-16.66l-1.1-.21.08-3.19c.59-.18,1.19-.37,1.8-.56.12-.04.25-.07.37-.12.37-.12.74-.24,1.11-.36.73-.24,1.48-.5,2.22-.77.25-.08.49-.17.74-.27.75-.27,1.5-.56,2.25-.87.42-.17.84-.34,1.25-.52,1.37-.59,2.7-1.24,3.99-1.95.31-.17.62-.34.93-.52.06-.04.12-.07.18-.11.3-.17.59-.35.88-.54.47-.3.92-.6,1.37-.92.63-.45,1.29-.93,1.95-1.47,4.14-3.32,8.52-8.37,8.02-16.11-.47-7.39-5.26-10.03-9.57-10.03h0c-3.61,0-7.92,1.63-13.16,4.99-.42.27-1.86,1.12-3.52,2.11-.03.02-.06.03-.09.05l.23-8.96c.15-5.78-4.91-10.54-11.19-10.54s-11.19,4.62-11.19,10.29v.25l.57,22.39c-.42.26-.82.52-1.19.77h-.02c-.77.5-1.45.94-2.04,1.33-1.49.99-2.47,1.68-3.04,2.19-3.45,3.06-7.99,8.05-7.58,16.11.4,7.97,5.33,14.2,13.5,17.09l1.33.48.2,7.59c-.05.03-.1.06-.14.1-.05.02-.1.06-.15.09-.16.1-.32.2-.48.31-1.41.91-2.77,1.85-4.04,2.84-.35.27-.69.55-1.03.83-5.85,4.89-8.63,11.06-8.26,18.35.39,7.79,5.36,13.93,13.62,16.85l1.49.53.18,7.18c-.13.1-.26.21-.39.31-.46.36-.92.72-1.38,1.08-.45.35-.89.7-1.32,1.04-2.99,2.36-5.36,4.27-6.2,5.02-3.07,2.72-7.1,7.32-6.67,15.83.37,7.36,6.16,13.89,15.12,17.06l1.88.66.13,4.96c-.8.59-1.57,1.17-2.31,1.73-.65.5-1.28.98-1.87,1.44-1.13.88-2.15,1.68-2.98,2.35-.25.2-.49.39-.71.57-.43.35-.79.64-1.07.87-.03.02-.06.05-.08.07-3.86,3.18-6.03,6.86-6.45,10.93-.19,1.92.41,3.77,1.71,5.21,1.39,1.54,3.42,2.42,5.56,2.42s4.01-.84,5.41-2.37c.63-.69,1.35-1.4,2.15-2.13.28-.25.57-.5.87-.73.09-.08.19-.15.28-.22l.36,14.11c.08,3.12,2.84,5.61,6.23,5.61s6.15-2.49,6.23-5.61l.53-21.04c.89-.4,1.77-.81,2.61-1.23.45-.22.89-.44,1.32-.68.27-.13.55-.28.81-.43.39-.21.78-.43,1.15-.66.1-.06.2-.12.29-.18.28-.17.55-.34.81-.51.49-.33.97-.67,1.42-1.02.61-.47,1.18-.94,1.7-1.41,6.27-5.53,6.93-10.51,6.75-14.31-.37-8.06-6.75-15.05-15.18-16.63ZM89.06,177.78c-1.54,1.2-3.45,2.25-5.55,3.26-.33.16-.67.32-1.02.48-4.06,1.89-8.66,3.69-12.59,6.11-1.46.9-2.82,1.88-4.03,2.98-.96.87-1.76,1.68-2.43,2.41-.58.64-1.36.92-2.12.92-1.52,0-2.99-1.1-2.83-2.72.24-2.38,1.49-5.19,4.91-7.99.89-.72,1.85-1.5,2.87-2.31,1.08-.85,2.22-1.74,3.39-2.64,3.29-2.52,6.83-5.08,9.91-7.06,2.17-1.39,3.7-3.4,4.33-5.66.23-.77.34-1.57.34-2.39v-9.83c6.14,1.15,11.26,6.24,11.54,12.46.13,2.84-.15,6.89-6.72,11.98ZM69,162.98c-6.89-2.43-11.87-7.39-12.16-13.07-.3-6.02,2.05-9.5,5.18-12.27.81-.72,3.3-2.74,6.47-5.24,3.69-2.9,8.28-6.45,12.18-9.35,2.04-1.51,3.91-3.56,4.46-5.85.12-.45.18-.91.18-1.38l.22-11.5c6.67,2.19,11.32,7.04,11.6,13.25.13,2.84-.96,7.96-7.26,13.31-1.69,1.43-3.44,2.83-5.19,4.19-4.57,3.53-9.07,6.74-12.15,9.31-2.33,1.93-3.47,5.28-3.53,8.13v10.47ZM64.18,87.36c.96-.8,2.01-1.58,3.11-2.34,5.2-3.57,11.65-6.77,16.21-10.72,1.26-1.09,2.21-2.4,2.82-3.83.49-1.17.75-2.42.75-3.69v-10.24c6.14,1.14,11.75,6.25,12.03,12.47.13,2.84.58,8.49-6.47,14.92-1.93,1.76-4.3,3.41-6.78,4.95-4.94,3.09-10.27,5.77-13.12,8.14-2.38,1.99-4.57,4.76-4.57,7.66v10.25s-.08-.03-.11-.04c-6.81-2.44-10.25-7.17-10.54-12.83-.3-6.02,2.06-10.85,6.67-14.7ZM62.67,41.84c.5-.44,1.77-1.3,3.46-2.41,2.34-1.52,5.48-3.5,8.49-5.43.68-.44,1.35-.87,2-1.3,2.96-1.93,7.26-4.52,10.83-6.64,2.99-1.79,5.46-3.23,6.15-3.68,4.33-2.78,8.02-4.29,10.75-4.29,3.03,0,4.88,1.85,5.13,5.85.35,5.39-2.39,9.6-8.11,13.67-.13.09-.26.18-.39.27-3.99,2.73-9.12,4.63-13.99,6.17-6.04,1.9-11.69,3.24-14.26,4.92-4.74,3.1-5.61,5.37-5.61,8.28v10.25c-.1-.03-.19-.07-.28-.1-6.7-2.47-9.97-7.41-10.25-13.01-.31-6.02,2.94-9.77,6.08-12.55Z"/>
  <path class="cls-1" d="M97.92,29.83c1.96-1.3,2.84-3.19,1.98-4.23-.87-1.04-3.17-.82-5.13.48s-2.84,3.19-1.97,4.23c.87,1.03,3.16.82,5.12-.48Z"/>
</svg>