<?xml version="1.0" encoding="UTF-8"?>
<svg xmlns="http://www.w3.org/2000/svg" version="1.1" viewBox="0 0 439.4 406.1">
  <defs>
    <style>
      .cls-1 {
        fill: #6a6a6a;
      }
    </style>
  </defs>
  <!-- Generator: Adobe Illustrator 28.7.5, SVG Export Plug-In . SVG Version: 1.2.0 Build 176)  -->
  <g>
    <g id="_Шар_1" data-name="Шар_1">
      <g>
        <path class="cls-1" d="M166.6,357.7c-1.6,2.5-2.9,4.8-4.5,6.9-6.6,8.2-15.2,12.2-25.7,12.1-23.4,0-46.7,0-70.1,0-19.2,0-32.6-13.4-32.7-32.7-.1-25.9,0-51.8,0-77.6,0-27.3,0-54.6,0-81.9,0-16.1,9.7-28.6,24.7-31.9,3.1-.7,6.4-.7,9.6-.8,25,0,50.1,0,75.1,0,3.1,0,4.7-1,6.1-3.8,9.2-18.5,19.2-36.6,27.8-55.3,5-10.8,7.9-22.5,11.7-33.8,5.5-16.4,16.5-27.3,33.2-31.8,22.2-6,45.8,5.4,54.5,26.7,5.1,12.5,9.3,25.3,10.6,38.9,1.1,11.8-1.2,23.2-3.3,34.7-.9,5.1-1.9,10.2-2.8,15.3-.9,5,.8,7,5.8,6.7,17-.9,34-1.9,51-2.8,35.5-1.8,64.8,21.5,71.1,56.4,1.8,9.9.5,19.6-1.3,29.3-5.1,27.9-9.7,55.9-15.2,83.8-7.9,39.6-41.6,67.8-82,68.5-29.5.5-59.1.2-88.6,0-10.4,0-19.8-3.4-28.4-9.2-8.8-6-17.7-11.9-26.7-17.8ZM168.9,247.4c0,25.2,0,50.4,0,75.5,0,2.9.9,4.6,3.3,6.1,12.2,8,24.4,16.1,36.5,24.2,4.5,3,9.3,4.5,14.7,4.5,28.3,0,56.6.2,84.8,0,29.5-.3,52.4-19.4,57.9-48.5,5.6-29.1,10.8-58.3,15.7-87.5,4.6-27.4-15.7-49.5-43.5-47.9-17.7,1-35.4,2.3-53.1,2.7-19.7.5-34.4-17.1-31.3-36.4.8-5,1.9-9.9,2.7-14.9,1.7-10.8,5.4-21.5,2.9-32.5-2.2-9.7-5.1-19.3-8.3-28.6-2-5.7-6.9-9.1-12.8-10.6-10.4-2.7-20.2,3-23.9,13.5-5.1,14.3-9.5,28.8-15.7,42.6-8.5,18.8-18.6,36.9-27.8,55.3-1.3,2.5-2,5.6-2,8.4-.2,24.8,0,49.5,0,74.3ZM141.5,178.9c-1.6,0-2.6-.2-3.6-.2-23.5,0-47,0-70.5,0-5.7,0-6.8,1.2-6.8,7,0,52.3,0,104.7,0,157,0,5.7,1.2,6.9,6.9,6.9,22.1,0,44.2,0,66.3,0,7.3,0,7.8-.6,7.8-8,0-52.7,0-105.5-.1-158.2,0-1.4,0-2.8,0-4.5Z"/>
        <path class="cls-1" d="M114.6,318.1c0,3.4.1,6.7,0,10.1-.4,6.8-5.6,12-12.5,12.5-6.4.5-13.2-3.9-13.8-10.4-.8-8-.8-16.2,0-24.3.7-6.5,7.5-10.9,13.8-10.3,6.8.6,12,5.9,12.4,12.7.2,3.2,0,6.4,0,9.7Z"/>
      </g>
    </g>
  </g>
</svg>