<?xml version="1.0" encoding="UTF-8"?>
<svg xmlns="http://www.w3.org/2000/svg" version="1.1" viewBox="0 0 361.2 383.1">
  <defs>
    <style>
      .cls-1 {
        fill: #6a6a6a;
      }
    </style>
  </defs>
  <!-- Generator: Adobe Illustrator 28.7.5, SVG Export Plug-In . SVG Version: 1.2.0 Build 176)  -->
  <g>
    <g id="_Шар_1" data-name="Шар_1">
      <path class="cls-1" d="M184.4,348.1c-28.2-.3-51.5-5.8-73.5-16.9-1.7-.8-4.1-1.1-5.9-.6-21.3,5.5-42.6,11.3-63.9,16.9-7.1,1.9-13.8-2.1-15-9.1-.4-2.4,0-5.2.9-7.6,5.9-17.6,11.9-35.2,18-52.7,1.1-3.1,1-5.4-.9-8.3-10.2-15.8-15.4-33.4-17.2-52-2.1-22.1-2.1-44.2,4.2-65.7,16.9-57.3,54.1-95,111.7-110.5,84.4-22.8,171.5,31,190.6,116.6,18.3,82.1-31.7,163.9-113,184.8-5.4,1.4-10.9,2.6-16.5,3.3-7.7,1-15.4,1.4-19.4,1.7ZM56.3,318.5c1.7-.4,2.9-.6,4.1-.9,14.8-4,29.6-7.9,44.4-11.9,4.2-1.2,8-.7,11.8,1.4,27.6,15.4,57,20.2,88.2,14.9,71.9-12.3,120.9-84.4,105.7-155.8-14.6-68.8-77.5-113.6-147.1-104.1-42.2,5.7-74.1,27.8-96,64.2-14.5,24.1-19.1,50.5-17.8,78.3,1,21.9,5.8,42.4,19.5,60.2,2.6,3.4,2.9,7.4,1.5,11.4-1.9,5.8-3.9,11.6-5.9,17.3-2.8,8.2-5.6,16.4-8.5,25.1Z"/>
      <path class="cls-1" d="M244.3,165.7h-126.5c-6.6,0-12-5.4-12-12s5.4-12,12-12h126.5c6.6,0,12,5.4,12,12s-5.4,12-12,12Z"/>
      <path class="cls-1" d="M244.3,233.9h-126.5c-6.6,0-12-5.4-12-12s5.4-12,12-12h126.5c6.6,0,12,5.4,12,12s-5.4,12-12,12Z"/>
    </g>
  </g>
</svg>